<?xml version="1.0" standalone="no"?>
<!DOCTYPE svg PUBLIC "-//W3C//DTD SVG 20010904//EN"
 "http://www.w3.org/TR/2001/REC-SVG-20010904/DTD/svg10.dtd">
<svg version="1.0" xmlns="http://www.w3.org/2000/svg"
 width="1280.000000pt" height="759.000000pt" viewBox="0 0 1280.000000 759.000000"
 preserveAspectRatio="xMidYMid meet">
<metadata>
Created by potrace 1.16, written by Peter Selinger 2001-2019
</metadata>
<g transform="translate(0.000000,759.000000) scale(0.100000,-0.100000)"
fill="#000000" stroke="none">
<path d="M6135 7401 c-132 -44 -391 -127 -575 -186 -184 -59 -519 -167 -745
-241 -225 -73 -511 -165 -634 -205 -252 -80 -268 -89 -296 -180 -23 -72 -31
-312 -16 -466 26 -255 89 -620 146 -838 142 -546 369 -1125 603 -1540 293
-520 666 -976 1067 -1305 110 -91 211 -161 386 -267 139 -85 174 -104 284
-148 l85 -34 95 39 c115 47 239 116 400 223 295 196 613 493 851 793 209 265
211 268 375 534 350 566 668 1416 783 2090 48 280 83 686 71 815 -15 168 -36
192 -220 252 -233 76 -981 318 -1370 443 -209 67 -497 160 -640 207 -360 118
-340 117 -650 14z m389 -67 c44 -13 85 -23 93 -20 7 3 13 1 13 -4 0 -13 986
-334 1065 -347 22 -3 42 -9 45 -13 7 -9 154 -59 675 -229 237 -78 440 -147
450 -155 19 -13 20 -27 18 -183 -1 -169 -26 -422 -62 -647 -11 -66 -18 -123
-16 -127 3 -3 -2 -20 -10 -35 -8 -16 -18 -61 -24 -99 -18 -133 -185 -671 -295
-954 -98 -250 -260 -582 -397 -813 -82 -140 -359 -538 -443 -638 -152 -182
-374 -396 -589 -568 -74 -59 -319 -234 -370 -264 -42 -24 -220 -98 -238 -98
-19 0 -202 76 -235 98 -6 4 -31 20 -55 36 -24 16 -93 62 -154 102 -677 445
-1281 1294 -1660 2329 -168 459 -236 733 -305 1235 -17 124 -35 233 -40 242
-12 21 -12 135 -1 272 7 91 10 101 35 123 15 13 35 23 45 23 24 0 652 208 668
221 6 6 17 8 22 5 5 -4 198 55 428 130 230 75 563 183 741 241 177 57 322 109
322 114 0 5 11 7 24 3 14 -3 31 -2 38 2 18 12 100 41 118 43 8 0 51 -11 94
-25z"/>
<path d="M6413 6785 c-16 -7 -83 -70 -149 -141 -65 -71 -153 -163 -194 -206
-41 -42 -95 -102 -120 -133 -25 -31 -79 -87 -120 -123 -306 -272 -354 -341
-300 -430 39 -63 101 -88 259 -102 88 -8 108 -7 121 5 9 8 23 15 32 15 20 0
98 59 173 130 33 31 92 82 130 114 39 31 97 83 130 115 85 82 88 84 118 70 14
-6 30 -22 37 -34 7 -13 21 -26 31 -28 10 -3 26 -18 36 -35 9 -16 32 -40 51
-53 19 -13 65 -57 101 -98 36 -40 75 -81 86 -90 11 -8 57 -54 103 -101 95 -98
83 -87 144 -140 61 -54 108 -125 108 -163 0 -23 -17 -46 -80 -112 -44 -45 -91
-88 -104 -95 -35 -18 -68 -6 -90 32 -41 71 -409 426 -473 456 -33 15 -35 15
-44 -1 -6 -9 -16 -17 -23 -17 -8 0 -16 -10 -20 -23 -3 -13 -48 -65 -101 -115
-106 -103 -115 -116 -115 -164 0 -31 41 -74 523 -552 287 -286 525 -522 529
-525 4 -3 58 -60 120 -125 167 -176 488 -476 509 -476 12 0 21 10 26 28 5 15
8 405 8 867 0 682 -3 848 -14 880 -10 30 -56 82 -185 211 -94 94 -177 177
-185 185 -30 31 -203 205 -213 214 -6 6 -51 51 -101 100 -49 50 -92 93 -95 97
-4 3 -47 46 -97 96 -49 49 -97 97 -105 105 -8 9 -50 49 -93 89 -43 40 -86 85
-95 101 -9 15 -20 27 -24 27 -4 0 -40 33 -80 73 -78 78 -108 92 -155 72z"/>
<path d="M4910 5217 l0 -884 34 -44 c19 -24 180 -184 358 -355 178 -171 411
-402 518 -514 271 -283 432 -438 464 -446 58 -14 100 19 420 336 422 417 542
546 556 599 29 108 -59 187 -220 198 -138 10 -240 -26 -355 -124 -88 -74 -291
-277 -299 -298 -8 -23 -55 -37 -86 -27 -26 10 -707 680 -727 717 -8 14 -8 26
2 45 18 34 122 132 180 169 l48 30 201 -198 c260 -258 300 -291 344 -291 30 0
47 12 124 88 99 96 148 163 148 200 0 13 -7 39 -16 58 -16 34 -405 445 -448
474 -26 17 -562 544 -612 600 -38 45 -437 428 -517 498 -42 36 -69 52 -89 52
l-28 0 0 -883z"/>
<path d="M6445 1289 c-80 -8 -123 -28 -166 -76 -63 -69 -74 -121 -74 -333 0
-210 11 -253 77 -303 63 -48 134 -58 476 -64 309 -6 312 -6 312 -27 0 -12 7
-34 15 -50 9 -16 13 -37 10 -48 -13 -39 -40 -43 -288 -42 -281 2 -302 5 -319
42 -20 43 -90 72 -171 72 -60 0 -71 -3 -94 -26 -24 -24 -25 -30 -21 -102 6
-92 33 -152 104 -231 l48 -53 415 4 c406 3 417 4 461 25 49 24 103 93 120 153
16 56 13 374 -4 413 -8 18 -45 64 -83 103 l-68 71 -85 6 c-47 4 -188 7 -315 7
-126 0 -246 3 -267 6 -34 6 -36 9 -43 50 -8 57 6 81 53 91 20 4 141 8 268 8
214 0 234 -1 253 -19 12 -11 21 -27 21 -37 0 -47 4 -49 147 -49 l135 0 -3 118
c-4 104 -7 123 -32 175 -44 89 -90 107 -282 113 -275 8 -541 9 -600 3z"/>
<path d="M8005 716 c-4 -322 -5 -600 -1 -619 l7 -35 182 -7 c100 -3 358 -5
572 -3 l390 3 3 120 c1 66 0 130 -3 142 l-5 23 -430 0 -430 0 0 474 0 474 -22
6 c-13 3 -75 6 -139 6 l-117 0 -7 -584z"/>
<path d="M2690 1280 l-165 -8 -47 -52 c-26 -28 -53 -67 -59 -88 -8 -26 -13
-196 -16 -553 l-5 -516 93 -6 c50 -4 109 -7 130 -7 l37 0 4 185 c2 127 7 188
15 196 15 15 450 25 533 12 l55 -8 6 -161 c4 -88 10 -175 14 -192 l7 -32 107
0 c157 0 145 -30 149 365 3 347 -10 688 -28 745 -15 44 -67 93 -117 109 -49
15 -492 22 -713 11z m407 -300 l173 0 0 -114 0 -113 -82 -6 c-46 -4 -179 -7
-295 -7 l-213 0 0 127 0 126 122 -6 c66 -4 199 -7 295 -7z"/>
<path d="M3723 1279 c-10 -10 -13 -148 -13 -622 l0 -609 573 7 c314 4 573 9
575 10 1 1 6 63 9 138 l6 135 -431 4 c-269 2 -435 7 -441 13 -6 6 -13 187 -18
462 -4 248 -12 455 -16 460 -15 14 -230 16 -244 2z"/>
<path d="M4912 773 c5 -597 3 -582 90 -670 l52 -53 307 0 c168 0 368 3 445 6
l139 7 46 46 c84 84 84 87 84 663 0 273 -4 500 -8 505 -10 9 -252 11 -262 2
-3 -4 -9 -211 -12 -461 l-6 -455 -241 -7 c-133 -4 -262 -9 -287 -13 -38 -4
-47 -2 -55 13 -4 11 -11 210 -14 444 -5 433 -7 458 -44 482 -6 4 -62 8 -124 8
l-114 0 4 -517z"/>
<path d="M10540 677 l0 -614 31 -7 c47 -9 587 -7 801 4 141 7 193 13 211 25
31 20 72 97 92 170 23 88 20 277 -6 395 -16 72 -21 135 -23 260 -1 149 -3 170
-24 216 -27 60 -81 116 -137 141 -36 16 -84 18 -492 21 l-453 3 0 -614z m804
256 c3 -21 6 -50 6 -65 l0 -28 -265 0 -265 0 0 59 c0 48 3 60 18 64 9 3 126 5
258 6 l241 1 7 -37z m66 -498 l0 -75 -289 0 -289 0 -6 23 c-3 12 -6 46 -6 75
l0 52 295 0 295 0 0 -75z"/>
<path d="M9485 1270 c-165 -13 -209 -41 -241 -156 -14 -50 -17 -135 -21 -561
l-5 -503 105 0 c57 0 118 3 134 6 l30 6 6 173 c4 95 10 180 13 188 4 11 31 17
102 23 107 8 457 0 485 -11 15 -6 17 -25 17 -176 0 -216 -5 -209 150 -209
l109 0 6 33 c4 18 5 251 3 517 -4 532 -7 557 -65 612 -62 60 -79 62 -418 64
-170 1 -355 -2 -410 -6z m625 -415 l0 -115 -294 0 -294 0 -6 23 c-8 30 -8 192
1 200 3 4 138 7 300 7 l293 0 0 -115z"/>
<path d="M1180 1222 c-68 -67 -73 -95 -67 -332 3 -107 10 -211 16 -230 13 -44
63 -94 115 -115 50 -21 245 -34 519 -35 l217 0 0 -85 0 -85 -242 1 c-134 1
-272 4 -308 8 l-65 6 -3 47 -3 48 -126 0 -125 0 4 -123 c6 -157 26 -213 82
-241 61 -30 189 -37 578 -30 l356 7 42 40 c74 73 75 76 75 317 0 384 -5 387
-558 397 l-328 6 6 51 c13 106 11 103 68 110 29 3 163 6 298 6 l246 0 9 -31
c14 -48 51 -70 127 -76 82 -7 122 7 136 49 29 81 -5 209 -75 287 l-46 51 -450
0 -451 0 -47 -48z"/>
</g>
</svg>
